<?xml version="1.0" encoding="UTF-8"?>
<svg id="_图层_1" data-name="图层_1" xmlns="http://www.w3.org/2000/svg" version="1.1" xmlns:xlink="http://www.w3.org/1999/xlink" viewBox="0 0 1366 768">
  <!-- Generator: Adobe Illustrator 29.4.0, SVG Export Plug-In . SVG Version: 2.1.0 Build 152)  -->
  <defs>
    <linearGradient id="_未命名的渐变" data-name="未命名的渐变" x1="709.46" y1="507.88" x2="922.82" y2="507.88" gradientUnits="userSpaceOnUse">
      <stop offset="0" stop-color="#fff"/>
      <stop offset="1" stop-color="#000"/>
    </linearGradient>
    <linearGradient id="_未命名的渐变1" data-name="未命名的渐变" x1="703.91" y1="637.14" x2="917.27" y2="637.14" gradientTransform="translate(0 895.49) scale(1 -1)" xlink:href="#_未命名的渐变"/>
    <linearGradient id="_未命名的渐变_9" data-name="未命名的渐变 9" x1="652.65" y1="355.41" x2="828.26" y2="355.41" gradientUnits="userSpaceOnUse">
      <stop offset=".17" stop-color="#000"/>
      <stop offset=".99" stop-color="#989898"/>
    </linearGradient>
  </defs>
  <g>
    <path d="M739.23,9c-207.11,0-375,167.89-375,375s167.89,375,375,375,375-167.89,375-375S946.34,9,739.23,9ZM739.23,668c-156.85,0-284-127.15-284-284s127.15-284,284-284,284,127.15,284,284-127.15,284-284,284Z" style="fill: #b10006;"/>
    <path d="M739.23,94c-160.16,0-290,129.84-290,290s129.84,290,290,290,290-129.84,290-290S899.39,94,739.23,94ZM739.23,668c-156.85,0-284-127.15-284-284s127.15-284,284-284,284,127.15,284,284-127.15,284-284,284Z" style="fill: #f84646;"/>
    <g>
      <circle cx="731.85" cy="382.71" r="312.63" style="fill: none;"/>
      <path d="M574.94,56.9c.22-.1.56-.07,1.02.1,1.19.46,2.35.52,3.48.18.52-.15,1.44-.1,2.75.16,1.31.26,2.2.88,2.66,1.86.47.98.27,2-.59,3.08-.86,1.07-1.56,2.4-2.1,3.98-.54,1.58-1.25,4.4-2.12,8.44-1.14,5.3-2.59,9.58-4.36,12.82s-3.07,5.07-3.9,5.47c-.31.15-.73.02-1.28-.38-.54-.4-.88-.74-1-1-.12-.26-.15-.5-.07-.74.08-.23.21-.37.41-.42l.46-.22c.53-.25.91-1.54,1.15-3.86.24-2.32.94-6.73,2.11-13.22,1.16-6.49,1.84-10.51,2.02-12.04.18-1.53.14-2.45-.13-2.73-.27-.29-.48-.58-.62-.88s-.11-.5.12-.61ZM600.51,90.85c.29-.19.67-.39,1.16-.62,1.93-.92,4.59-1.77,7.97-2.55,3.38-.78,6.02-1.17,7.93-1.17s3.3.28,4.17.85c.86.57,1.64,1.57,2.33,3.01.69,1.44,1.06,2.37,1.14,2.81.07.43-.11.75-.55.96-1.14.54-2.04.79-2.69.73-.65-.06-2.19-.17-4.61-.34-2.43-.17-4.01-.25-4.76-.23-2.48.11-4.22-.02-5.2-.39-3.52-1.27-5.83-1.88-6.94-1.84-.4,1.76-1.13,3.97-2.18,6.63-1.05,2.66-1.94,4.55-2.68,5.66-.74,1.11-1.46,1.84-2.16,2.17-.7.33-1.28.37-1.74.09-1.24-.78-4.06-1.79-8.48-3.02-.38,1.46-.8,2.91-1.24,4.35-.45,1.44-.95,2.87-1.51,4.29-.56,1.42-1.1,2.63-1.62,3.64-.52,1.01-.82,1.56-.91,1.65-.09.09-.2.17-.33.23-.48.23-1.01.14-1.59-.27-.58-.41-1-.9-1.26-1.46-.27-.56-.31-1.15-.12-1.78,1.02-3.29,1.7-5.82,2.04-7.6.34-1.78.75-4.92,1.25-9.43.49-4.5.84-7.31,1.04-8.41.2-1.1.57-2.22,1.11-3.36-.41,1.62-.43,2.83-.05,3.63s.82,1.15,1.32,1.06c1.58-.31,2.75-.27,3.53.12s1.27.8,1.48,1.24c.21.44.22,1.03.03,1.75-.19.73-.46,1.25-.79,1.56-.34.31-.65,1.04-.94,2.18-.29,1.14-.5,2.43-.62,3.87.82-.2,1.53-.43,2.12-.72.59-.28.9-.58.92-.88.05-.91.16-1.4.31-1.47.15-.07.45.35.89,1.27.11.24.43.38.94.44,1.04.14,1.95.59,2.74,1.34.71-3.72,1.13-7.73,1.27-12.01s.06-6.74-.23-7.36c-.29-.62-.83-.77-1.59-.46.17-.67.35-1.2.54-1.58.19-.39.55-.71,1.08-.96,1.54-.73,3.23-.92,5.06-.57,1.84.35,3,1.05,3.5,2.08.32.68.27,1.38-.17,2.1-.44.72-.74,1.95-.92,3.67-.17,1.73-.16,3.43.04,5.09ZM580.55,84.1c.39-1.22.89-2.25,1.51-3.11.61-.86,2.3-2.63,5.06-5.32,1.06-1.05,1.53-1.7,1.41-1.96-.12-.26-.9-.49-2.31-.7-1.42-.21-2.23-.29-2.42-.24-.8.14-1.28.02-1.45-.34-.17-.36.24-.8,1.23-1.32.99-.52,2.34-1.31,4.05-2.37,1.71-1.06,2.62-1.62,2.76-1.68.79-.38,1.77-.66,2.95-.85,1.18-.19,2.49-.24,3.93-.15,1.45.1,2.38.29,2.79.59.41.29.79.8,1.13,1.52.34.72.24,1.66-.31,2.83-.55,1.17-1.44,2.05-2.67,2.63-.31.15-.67.29-1.08.44-1.61.57-3.86,1.55-6.74,2.92-2.88,1.37-4.84,2.43-5.89,3.17-1.05.75-2.36,2.06-3.94,3.94Z" style="fill: #fff;"/>
      <path d="M685.83,54.36c.53-.08.97-.26,1.32-.54.35-.28,1.1-1.06,2.23-2.35.34-.36.73-.58,1.16-.64.43-.07,1.36.05,2.79.35,1.42.3,2.56.85,3.42,1.63.86.79,1.39,1.64,1.6,2.55.21.91.58,3.15,1.12,6.72.54,3.57.92,6.46,1.16,8.66.23,2.21.08,4.28-.47,6.22-.54,1.94-.92,3.05-1.12,3.33-.21.28-.4.43-.59.46-.63.09-1.47-.7-2.54-2.37-1.06-1.68-1.97-2.95-2.72-3.82-.75-.87-1.33-1.28-1.73-1.22-.41.06-.79.23-1.14.51-3.03,2.11-5.02,3.24-5.99,3.39-.96.14-2.06-.62-3.3-2.29-1.24-1.67-2.08-3.98-2.52-6.91-.61-4.03-.79-6.95-.54-8.75.24-1.81,1.02-3.28,2.33-4.42-1.2-.8-3.16-1.36-5.86-1.67-2.86,7.51-5.75,11.48-8.69,11.92-.48.07-1.04.04-1.67-.08-.63-.13-.99-.43-1.06-.91-.07-.48-.02-.89.15-1.23.17-.34.4-.53.69-.57,1.25-.19,2.54-1.62,3.85-4.31,1.32-2.68,1.96-4.63,1.93-5.83-.79.61-1.78,1.57-2.96,2.87-1.18,1.3-2.47,2.33-3.85,3.1-1.39.77-2.46,1.21-3.23,1.33-.77.12-1.56,0-2.38-.38-.82-.37-1.49-.66-2.01-.87-.52-.21-.81-.49-.87-.84-.09-.61.17-.99.79-1.13.62-.14,1.13-.32,1.54-.53.41-.22,1.24-.89,2.5-2.02,1.26-1.13,2.69-2.24,4.3-3.33,1.61-1.09,3.81-2.34,6.6-3.75.15-.96.2-1.62.15-1.97-.05-.35-.18-.51-.37-.48-.19.03-.56.29-1.1.77-.54.48-1.16.98-1.84,1.49-.69.51-1.13.77-1.32.8-.19.03-.31-.09-.35-.35-.04-.26.45-.85,1.47-1.77s1.78-1.52,2.27-1.82c-.11-.39-.27-.56-.49-.53-.22.03-.42.13-.62.29-.2.17-.34.25-.44.27-.72.11-1.47-.44-2.24-1.64-.77-1.2-1.22-2.26-1.36-3.15-.14-.9-.13-1.58.02-2.05.15-.47.39-.77.71-.91.32-.14.62-.46.89-.97.27-.51.37-1.01.29-1.49-.07-.48-.34-.86-.8-1.12-.46-.27-.75-.51-.89-.74-.13-.23-.23-.53-.28-.9-.06-.37-.01-.57.13-.59.67-.1,1.71.15,3.1.74,1.39.6,2.65,1.64,3.76,3.13.44.61,1.32.81,2.64.61,1.32-.2,2.18-.58,2.56-1.16.38-.57.79-.89,1.22-.96.29-.04.6.08.94.36.34.29.76.46,1.26.52.5.06.91.26,1.23.59.32.33.52.75.6,1.25.08.5-.11.9-.56,1.19-1.25.82-2.09,1.46-2.52,1.92-1.44,1.56-2.72,2.67-3.85,3.33-.17.16-.24.37-.2.63s.24.48.61.65c.58.27.89.67.92,1.2,2.18-1.54,3.71-2.37,4.61-2.51.89-.13,1.94.11,3.14.74,1.2.62,1.83,1.12,1.89,1.5.06.37-.63.67-2.04.88-1.42.21-2.86.61-4.32,1.19-1.46.58-2.65,1.27-3.56,2.08-.03.81-.13,1.61-.3,2.4.8-.25,1.56-.43,2.28-.54,3.75-.56,6.61,1.07,8.56,4.89ZM684.54,55.63l-3.53-.41c-.17.52-.21,1.05-.13,1.6.08.55.36,1.25.84,2.12.85-1.2,1.79-2.31,2.82-3.31ZM684.19,72.41c1.62-.69,2.96-1.31,4.04-1.85,1.07-.54,1.85-.85,2.33-.92.91-.14,1.8.17,2.65.91.85.74,1.35,1.11,1.49,1.08.38-.06.29-1.99-.28-5.8-.89-5.91-1.39-9.06-1.5-9.45-.11-.39-.37-.55-.77-.49-.41.06-1,.49-1.77,1.27-.77.79-1.42,1.34-1.96,1.67-.54.33-1.58.7-3.12,1.11-1.54.41-2.41.92-2.61,1.54.35,1.69.54,2.81.58,3.34,1.71-.71,2.91-1.34,3.59-1.92.68-.57,1.3-.9,1.88-.99.58-.09,1.36.15,2.36.72,1,.57,1.53,1.07,1.59,1.51.07.44-.06.73-.39.86-1.11.48-2.16,1.01-3.16,1.58-1,.58-1.81.97-2.44,1.17-.63.21-1.67.4-3.12.57.01.4.08,1.01.2,1.82.12.81.26,1.56.41,2.25ZM688.13,37.76c.64-.95,1.99-2.3,4.04-4.07,2.05-1.76,3.43-2.85,4.16-3.25.73-.4,1.57-.67,2.53-.82,1.97-.3,3.85.07,5.63,1.1,1.78,1.03,2.77,2.25,2.99,3.65.11.75,0,1.26-.36,1.53-.92.77-2.2,2.71-3.85,5.82,1.05.42,1.61.91,1.7,1.46.08.55-.09.88-.52.98-1.73.58-3.39,1.36-4.96,2.36-1.57,1-3.44,1.86-5.59,2.59.06.75-.39,1.2-1.35,1.34-1.54.23-2.94-.59-4.21-2.46-1.27-1.87-2.01-3.55-2.23-5.04-.07-.48-.09-.9-.04-1.27.04-.36.04-.72-.01-1.07-.18-1.18-1.07-2.39-2.69-3.63-.39-.3-.6-.52-.62-.68-.02-.15.16-.26.54-.32.38-.06,1.03.06,1.94.35.9.29,1.87.76,2.91,1.41ZM696.02,42.14c2.45-3.33,3.62-5.36,3.51-6.1-.03-.22-.13-.31-.3-.29-.17.03-.3.07-.39.13-.49.34-1.42.76-2.8,1.26s-2.5.81-3.36.94l-1.17.11c-.87.13-1.21.61-1.04,1.43.68.62,1.3,2.07,1.84,4.36,1.67-1.01,2.9-1.62,3.71-1.83Z" style="fill: #fff;"/>
      <path d="M779.06,35.83c3.05.64,5.05,1.51,5.99,2.62.94,1.11,1.32,2.23,1.15,3.37-.14.92-1.41,1.2-3.82.83-1.11-.17-2.51-.47-4.22-.91-1.46.18-3.24.68-5.36,1.51-2.12.82-3.23,1.58-3.33,2.28-.05.31.23.5.83.6.6.09,1.58-.1,2.93-.56,1.35-.47,2.58-.62,3.69-.45,1.44.22,2.87,1.02,4.29,2.4,1.42,1.38,2.01,2.85,1.77,4.4-.24,1.55-.89,2.92-1.95,4.11-.35.35-.95,1.21-1.79,2.58-.85,1.37-1.95,2.79-3.3,4.24-1.35,1.45-2.34,2.13-2.97,2.04-.63-.1-1.29-.67-1.99-1.71-.7-1.05-1.26-2.14-1.68-3.28-.28,2.47-1.13,4.89-2.58,7.27-.2.33-.32.66-.37.99-.05.33.11.52.47.57.36.05,2.21-.37,5.55-1.28,3.34-.91,5.42-1.61,6.26-2.11.84-.5,1.48-1.25,1.93-2.26.45-1.01.78-1.49,1-1.46.22.03.37.33.46.88s.1,1.05.03,1.48c-.19,1.27-.84,2.59-1.93,3.97-1.09,1.38-2.31,2.34-3.65,2.87s-2.59,1.25-3.76,2.15c-1.17.9-1.93,1.7-2.28,2.41-.48.91-1.42,1.26-2.82,1.05-1.06-.16-2.33-.81-3.8-1.95-1.48-1.14-2.37-2.16-2.67-3.06-.31-.9-.31-2.36,0-4.4.31-2.04.83-4.62,1.58-7.76.75-3.13,1.45-5.09,2.11-5.86.66-.77,1.42-1.1,2.29-.96.87.13,1.69.88,2.46,2.25,1.49,1.57,2.49,2.39,3.02,2.47.53.08,1.09-.56,1.69-1.93.6-1.36.92-2.17.96-2.41.04-.24-.04-.38-.23-.41-.19-.03-.59.08-1.19.32-.6.24-1.29.31-2.06.19-1.25-.19-2.33-.88-3.23-2.07-.9-1.19-1.36-2.7-1.38-4.54-2.72,2.99-4.72,5.03-6.02,6.11-1.3,1.08-3.19,2.23-5.69,3.44-2.5,1.21-4.68,2.2-6.54,2.97-1.87.77-2.93,1.13-3.19,1.1-.26-.04-.4-.19-.41-.43-.01-.25.06-.88.21-1.88.15-1.01.48-1.7.98-2.07,7.91-6.06,12.99-10.24,15.26-12.54l7.03-6.93c2.38-2.37,3.63-4,3.77-4.87.05-.35-.05-.81-.31-1.39-.26-.58-.3-1.43-.13-2.57.07-.48.24-.7.51-.66.26.04.51.27.75.68.23.42.64.84,1.21,1.26.58.42,1.03.7,1.35.84,3.22,1.16,4.7,2.64,4.42,4.43-.11.7-.53,1.38-1.27,2.03ZM774.66,39.06c-.43.25-1.47,1.16-3.11,2.72-1.64,1.57-2.47,2.44-2.5,2.61-.03.17.02.27.14.29.12.02.31-.04.58-.18,3.57-2.15,5.62-3.26,6.15-3.33.53-.08.81-.22.84-.44.07-.44-.64-.99-2.11-1.66ZM804.65,50.66c-.45,2.98-.88,6.64-1.3,10.99-.41,4.35-.61,7.47-.6,9.35s-.16,4-.52,6.34c-.35,2.34-.68,4.08-.98,5.23-.29,1.14-.65,1.94-1.06,2.39-.41.45-.87.82-1.38,1.1-.51.28-.99.39-1.45.32-.46-.07-.77-.36-.94-.88-.52-1.42-1.73-2.73-3.62-3.91-1.53-.95-3.2-2.36-5.01-4.22-1.81-1.86-2.7-2.91-2.67-3.12,0-.04.08-.05.23-.03.24.04.86.33,1.86.89,1.77.98,3.57,1.62,5.4,1.89,2.12.32,3.26.07,3.44-.75.17-.83.64-3.71,1.39-8.66l3.2-23.1c.31-2.06.55-3.39.72-3.99.17-.6.3-1.26.41-1.99s-.04-1.75-.46-3.09-.76-2.03-1.05-2.07c-.29-.04-.62.25-.98.89-.37.64-.62.95-.77.93-.14-.02-.11-.32.1-.89.21-.57.34-1.02.39-1.35.05-.33.05-.6.01-.81-.04-.21-.04-.46,0-.77.05-.31.3-.6.76-.89.46-.29.91-.4,1.34-.33.72.11,2.06,1.17,4.02,3.2,1.96,2.02,2.81,3.86,2.56,5.53-.06.39-.19.75-.39,1.08-.39.66-.88,2.23-1.45,4.72-.57,2.49-.98,4.5-1.21,6.03ZM794.52,46.37c-.18,1.23-.15,2.6.12,4.12.11.55.05,1.65-.2,3.29-.25,1.64-.94,3.82-2.06,6.54s-2.24,3.99-3.35,3.83c-.34-.05-.59-.18-.75-.38-.17-.2-.55-1.08-1.15-2.63-.6-1.55-.98-2.62-1.14-3.23-.15-.6-.18-1.27-.07-1.99.11-.72.45-1.58,1.02-2.57.57-.99.89-1.75.97-2.27.08-.52.04-1.05-.13-1.57-.17-.52-.64-1.44-1.43-2.77-.78-1.33-1.15-2.16-1.1-2.48.05-.33.19-.47.43-.44.24.04.56.2.96.48,2.12,1.58,3.49,2.41,4.09,2.5.6.09.99.05,1.16-.13.17-.17.5-.7.98-1.57,1.97-3.6,3.13-5.37,3.46-5.32.05,0,.06.12.02.34-.05.35-.33,1.24-.85,2.66-.51,1.42-.84,2.62-.99,3.58Z" style="fill: #fff;"/>
      <path d="M898.08,84.55c1.22.05,2.26.27,3.11.69.86.41,1.62,1.2,2.31,2.36.68,1.16.92,1.96.71,2.4-.21.44-.45.77-.71.99-.27.22-.54.34-.83.38-.29.03-.58-.02-.89-.17l-.69-.41c-.31-.15-1.02-.33-2.13-.54-1.11-.21-2.29-.37-3.53-.48-1.19,2.48-2.56,5.55-4.11,9.23l-3.79,9.08c-.9,1.88-2.19,4.08-3.86,6.62-1.68,2.53-2.76,4.06-3.24,4.56s-.86.69-1.12.57c-.35-.17-.34-1.01.04-2.52.38-1.52,1.65-5.27,3.83-11.28,2.18-6,4.46-11.6,6.85-16.79-2.67.04-5.77.43-9.29,1.14-3.59,6.58-5.96,9.59-7.1,9.05-.22-.11-.34-.36-.36-.76.05-1.45,0-2.74-.13-3.86-.14-1.12.03-2.05.49-2.79.46-.74,1.1-1.96,1.93-3.68-1.53,1.72-3.44,3.51-5.73,5.35-.07.26-.16.51-.28.75-.5,1.04-1.32,1.28-2.46.74-.75-.36-1.56-1.02-2.45-1.99-.21.54-.62,1.45-1.23,2.73-.61,1.28-1.3,2.48-2.06,3.62-.76,1.13-1.32,1.62-1.67,1.45-.35-.17-.56-.91-.63-2.22-.09-2.5-.55-4.54-1.36-6.11-2.08.72-3.47.91-4.2.56-.72-.35-1.16-1.05-1.3-2.1-.14-1.05-.08-2.52.17-4.41-1.15.04-2.38.16-3.7.36-1.31.21-2.24.41-2.77.62-.53.21-1.03.21-1.49-.01-.46-.22-1.21-.77-2.24-1.66-1.03-.89-1.73-1.54-2.09-1.96-.37-.42-.47-.8-.3-1.14.16-.34.41-.68.73-1.01.32-.33.6-.51.82-.53.22-.02.5.03.83.14,1.02.34,2.74.37,5.15.07,2.41-.29,6.64-.68,12.7-1.16-.41-.83-1.62-1.86-3.63-3.07-.75-.46-1.24-.85-1.46-1.18-.22-.33-.23-.7-.03-1.12.2-.42.42-.7.64-.83.23-.14.6-.13,1.12.02,1.02.34,4.49.66,10.4.94.29-.6.59-.97.9-1.12.31-.14.86-.13,1.64.05.78.18,1.78.06,3.01-.36,1.23-.42,1.91-.84,2.06-1.26-4-.1-7.14.36-9.41,1.38-.83.39-1.59.42-2.27.09-.68-.33-1.04-.95-1.08-1.88-.04-.93.13-1.79.51-2.59.38-.8,1.24-1.57,2.56-2.31-.73-.16-1.39-.37-1.96-.64-1.45-.69-2.43-1.96-2.95-3.81-.52-1.84-.69-2.96-.5-3.34.18-.38.44-.49.77-.33.33.16.64.36.93.59.29.24.54.41.77.51,1.05.51,4.1.96,9.14,1.37-.53-.7-.74-1.15-.64-1.37.11-.22.46-.27,1.08-.14.62.12,1.42.19,2.42.2.99.01,1.76-.05,2.31-.18.02-2.3-.12-3.79-.44-4.49-.14-.26-.22-.63-.24-1.11-.01-.47.05-.87.21-1.19.15-.32.4-.39.76-.23.35.17.64.41.87.71.57.72,1.59,1.53,3.05,2.42,2.96,1.82,4.04,4.52,3.23,8.11,2.16.79,2.86,1.96,2.12,3.52-.19.4-.47.65-.84.74-.37.09-1.13.16-2.28.2-2.84.06-5.06.42-6.67,1.07.8.24,1.48.49,2.03.75.55.26,1.13.71,1.74,1.35,1.08-.22,2.15-.15,3.22.22,6.84-1.53,11.05-2.83,12.63-3.88-1.29-.13-2.1-.27-2.43-.43-.33-.16-.46-.3-.41-.42.12-.24.75-.44,1.91-.59,1.16-.16,2.17-.03,3.05.39.88.42,1.62,1.34,2.23,2.77.61,1.42.76,2.46.44,3.12-.32.66-1.76,1.3-4.33,1.94-2.57.63-5.84.91-9.79.83-.17.36-.26.77-.27,1.23,0,.46.11.78.36.95.76.66.91,1.47.45,2.43-.27.56-.74,1.01-1.42,1.35s-1.27,1.22-1.79,2.64l8.63-.43c.27-.56.3-1.13.1-1.72-.07-.18-.03-.44.13-.78.16-.34.67-.62,1.54-.84.86-.22,1.6-.19,2.22.11.61.29,1.1.8,1.46,1.51.36.71.45,1.47.28,2.27ZM863.62,85.84c-2.76-.1-4.8-.07-6.11.09-.23.58-.25,1.21-.09,1.87.88.18,1.83.28,2.85.3,1.01.02,1.71-.06,2.1-.24.38-.18.68-.48.88-.9.2-.42.32-.79.37-1.11ZM860.89,91.53c-.63-.25-1.26.04-1.88.87.15.47.46.79.92.96.29-.26.51-.56.69-.92.17-.36.26-.66.27-.9ZM868.4,66.77c-.95-.16-1.8-.08-2.55.25.05.22.22.4.51.54.28.14.65.16,1.11.05.45-.1.72-.23.79-.39s.12-.31.13-.45ZM874.34,87.45c-1.85-.64-3.79-1.03-5.83-1.18-.14.18-.39.65-.75,1.41-.37.76-.6,1.48-.71,2.16.34.31.77.59,1.29.84,2.53-.65,4.53-1.73,6.01-3.23ZM877.36,85.21c.88-.61,1.76-1.81,2.62-3.61.86-1.8,1.34-2.94,1.45-3.43.1-.49-.03-1.04-.38-1.66-.79.75-1.83,1.01-3.13.78-1.04-.2-1.69-.07-1.97.38,1.06.61,1.67,1.1,1.84,1.47.17.38.11.88-.19,1.49-.3.62-.61.99-.93,1.1-.33.11-1.13.1-2.41-.05-1.28-.15-2.13.05-2.55.58,1.8.52,3.04.95,3.72,1.27.68.33,1.32.88,1.92,1.66Z" style="fill: #fff;"/>
    </g>
    <polygon points="1069.67 296.39 1054.26 288.47 1038.99 296.68 1041.76 279.57 1029.23 267.59 1046.36 264.93 1053.88 249.32 1061.7 264.79 1078.88 267.12 1066.58 279.33 1069.67 296.39" style="fill: #fff;"/>
    <polygon points="425.27 382.07 409.85 374.14 394.59 382.36 397.35 365.24 384.83 353.26 401.96 350.61 409.48 334.99 417.3 350.46 434.48 352.79 422.18 365.01 425.27 382.07" style="fill: #fff;"/>
    <polygon points="1038.85 221.19 1023.43 213.27 1008.16 221.48 1010.93 204.37 998.4 192.38 1015.53 189.73 1023.06 174.11 1030.88 189.58 1048.05 191.91 1035.76 204.13 1038.85 221.19" style="fill: #fff;"/>
    <polygon points="438.37 296.39 422.95 288.47 407.69 296.68 410.46 279.57 397.93 267.59 415.06 264.93 422.58 249.32 430.4 264.79 447.58 267.12 435.28 279.33 438.37 296.39" style="fill: #fff;"/>
    <g>
      <circle cx="739.23" cy="384" r="309.18" style="fill: none;"/>
      <path d="M412.94,493.21c-1.26-3.77-1.48-6.78-.65-9.04.82-2.26,2.61-3.84,5.37-4.76l22.21-7.41,2.93,8.79-21.97,7.33c-.51.17-.98.37-1.41.61-.44.24-.75.57-.95.97s-.18.96.05,1.64c.23.7.55,1.16.95,1.37.4.21.84.28,1.34.2s1-.2,1.5-.37l21.97-7.33,2.93,8.79-22.21,7.41c-2.76.92-5.14.73-7.16-.58-2.01-1.31-3.65-3.85-4.91-7.62Z" style="fill: #fff;"/>
      <path d="M420.76,514.1l24.86-11.15,3.97,8.85-3.17,1.42c1.1-.1,2.18.15,3.25.75,1.07.6,1.96,1.7,2.68,3.3,1.15,2.57,1.46,4.68.92,6.31-.54,1.64-1.73,2.87-3.58,3.7l-19.18,8.6-3.91-8.73,18.56-8.32c.49-.22.87-.57,1.15-1.05.28-.48.26-1.09-.07-1.81-.3-.68-.68-1.1-1.14-1.28s-.94-.21-1.45-.08c-.51.13-.99.3-1.46.5l-17.48,7.84-3.97-8.85Z" style="fill: #fff;"/>
      <path d="M435.43,545.09l23.9-13.09,4.66,8.51-23.9,13.09-4.66-8.51ZM460.79,531.2l4.75-2.6,4.66,8.51-4.75,2.6-4.66-8.51Z" style="fill: #fff;"/>
      <path d="M449.47,569.67c-1.4-2.21-2.03-3.9-1.89-5.07.14-1.17.86-2.17,2.16-2.99l14.35-9.09-1.46-2.31,4.19-2.65,1.46,2.31,4.88-3.09,5.04,7.97-4.88,3.09,1.46,2.31-4.19,2.65-1.46-2.31-13.06,8.27c-.38.24-.58.5-.62.78-.04.28.11.68.44,1.2.23.37.46.68.68.95l-3.74,2.37c-.16-.16-.6-.68-1.33-1.57-.73-.89-1.4-1.83-2.03-2.82Z" style="fill: #fff;"/>
      <path d="M454.54,585.14l3.29-2.49,2.82,3.71c.43.56.77.74,1.03.54.13-.1.26-.23.37-.38l17.38-21.18,5.62,7.41-14.34,14.28,17.91-9.57,5.65,7.45-27.39,11.32c-.98.41-1.92.46-2.8.17-.88-.29-1.86-1.14-2.91-2.53l-6.62-8.72Z" style="fill: #fff;"/>
      <path d="M495.62,626.99l17.91-26.97,6.85,6.32-11.75,16.62,15.66-13.01,6.53,6.03-11.81,16.56,15.56-13.11,6.93,6.39-25.5,19.97-8.4-7.75,8.68-12.93-12.11,9.77-8.54-7.88Z" style="fill: #fff;"/>
      <path d="M528.19,655.48l16.12-21.97,7.82,5.74-16.12,21.97-7.82-5.74ZM545.3,632.17l3.2-4.37,7.82,5.74-3.2,4.37-7.82-5.74Z" style="fill: #fff;"/>
      <path d="M553.34,673.53c-6.75-4.34-8.65-8.8-5.7-13.38l1.17-1.82,8.21,5.28-1.73,2.69c-.33.52-.44,1.03-.33,1.52.11.49.51.95,1.17,1.38,1.19.76,2.16.55,2.93-.64.64-1,.81-1.94.5-2.84-.3-.89-.76-1.86-1.36-2.89l-2.91-5.04c-.91-1.59-1.46-3.02-1.67-4.27-.2-1.25.15-2.59,1.06-4,.85-1.31,2.01-2.1,3.5-2.35,1.48-.25,3.13-.09,4.94.48,1.81.57,3.61,1.44,5.41,2.59,6.62,4.26,8.51,8.61,5.66,13.04l-.28.43-8.43-5.42.56-.87c.3-.46.46-.98.5-1.56.04-.58-.28-1.09-.97-1.53-1.15-.74-1.99-.71-2.52.11-.53.83-.46,1.79.21,2.88l3.47,5.73c1.09,1.78,1.83,3.54,2.23,5.28s.03,3.48-1.08,5.22c-1.39,2.16-3.36,3.21-5.92,3.17s-5.43-1.1-8.62-3.15Z" style="fill: #fff;"/>
      <path d="M579.8,688.96c-1.67-.85-2.9-1.73-3.67-2.64-.77-.91-1.22-1.85-1.33-2.82-.12-.97,0-1.98.34-3.03.34-1.05.79-2.13,1.36-3.24l5.38-10.55c.95-1.87,2.22-3.12,3.79-3.78,1.58-.65,3.55-.37,5.92.84,1.75.89,2.97,1.83,3.66,2.81.69.98,1.06,2.05,1.12,3.21l3.46-6.8,8.79,4.48-14.52,28.48-8.79-4.48,1.31-2.57c-.93.63-1.92.99-2.98,1.09-1.05.1-2.34-.23-3.85-1.01ZM585.42,686.12c.82.42,1.48.48,1.99.18s1.05-1.02,1.64-2.16l5.21-10.21c.29-.57.46-1.2.49-1.88.03-.68-.38-1.24-1.23-1.68-.93-.48-1.66-.51-2.17-.11-.51.41-.93.92-1.25,1.55l-5.21,10.21c-1.04,2.03-.86,3.4.53,4.1Z" style="fill: #fff;"/>
      <path d="M615.11,704.97c-7.55-2.92-10.3-7.01-8.27-12.26l3.95-10.2c.93-2.39,2.67-3.92,5.23-4.57s5.61-.29,9.14,1.08c3.55,1.38,6.06,3.17,7.51,5.37,1.45,2.21,1.71,4.5.79,6.9l-3.95,10.2c-2.03,5.25-6.83,6.41-14.4,3.48ZM616.92,700.29c.76.29,1.37.32,1.84.08.47-.24.81-.64,1.03-1.21l4.81-12.42c.57-1.48.15-2.49-1.26-3.04-1.41-.55-2.41-.08-2.98,1.4l-4.81,12.42c-.22.56-.23,1.09-.05,1.59s.66.89,1.42,1.18Z" style="fill: #fff;"/>
      <path d="M637.24,712.93l6.6-26.43,9.2,2.3-.77,3.07c.69-.98,1.62-1.62,2.78-1.95,1.16-.32,2.72-.24,4.68.25,1.58.39,2.86.97,3.85,1.74.99.76,1.61,1.6,1.87,2.52.94-.69,1.95-1.14,3.03-1.35,1.09-.21,2.53-.09,4.34.36,2.19.55,3.8,1.28,4.82,2.21,1.03.93,1.63,2,1.82,3.23.19,1.22.1,2.57-.27,4.02l-4.82,19.31-9.38-2.34,4.85-19.42c.43-1.7-.01-2.72-1.31-3.04-.68-.17-1.25-.15-1.69.07-.45.22-.8.54-1.05.96-.25.42-.44.86-.55,1.32l-4.74,18.98-9.38-2.34,4.85-19.42c.14-.55.17-1.13.11-1.73-.06-.6-.51-1.01-1.33-1.21-.7-.18-1.29-.14-1.76.1-.47.25-.84.6-1.1,1.06-.26.46-.46.94-.58,1.42l-4.66,18.66-9.41-2.35Z" style="fill: #fff;"/>
      <path d="M705.27,726.15l2.7-31.85,9.18.78-2.7,31.85-9.18-.78Z" style="fill: #fff;"/>
      <path d="M724.73,727.69l.19-27.25,9.7.07-.02,3.47c.37-1.04,1.05-1.92,2.04-2.65.99-.72,2.36-1.08,4.11-1.07,2.82.02,4.86.62,6.12,1.79,1.27,1.17,1.89,2.77,1.88,4.79l-.15,21.02-9.57-.07.14-20.34c0-.53-.16-1.03-.48-1.48-.32-.46-.88-.69-1.67-.69-.74,0-1.29.16-1.64.51-.35.34-.58.77-.67,1.29-.09.52-.14,1.03-.15,1.54l-.13,19.16-9.7-.07Z" style="fill: #fff;"/>
      <path d="M759.61,727.37l-2.56-27.12,9.66-.91.33,3.45c.26-1.07.85-2.02,1.76-2.84.91-.82,2.24-1.31,3.98-1.48,2.81-.27,4.9.12,6.27,1.16,1.38,1.04,2.16,2.56,2.35,4.58l1.97,20.92-9.52.9-1.91-20.25c-.05-.53-.26-1.01-.62-1.43s-.95-.59-1.74-.52c-.74.07-1.26.29-1.58.67-.32.38-.5.83-.54,1.35-.04.52-.04,1.04,0,1.54l1.8,19.08-9.66.91Z" style="fill: #fff;"/>
      <path d="M805.92,721.53c-7.94,1.57-12.46-.41-13.54-5.94l-2.12-10.73c-.5-2.52.16-4.74,1.97-6.66,1.81-1.92,4.58-3.24,8.3-3.98,3.74-.74,6.81-.56,9.22.52,2.41,1.09,3.86,2.89,4.35,5.41l2.12,10.73c1.09,5.52-2.34,9.07-10.3,10.64ZM804.94,716.61c.8-.16,1.33-.46,1.6-.92s.35-.98.23-1.57l-2.58-13.06c-.31-1.56-1.2-2.19-2.69-1.89-1.49.29-2.08,1.22-1.77,2.78l2.58,13.06c.12.59.39,1.05.81,1.37.42.32,1.03.4,1.83.24Z" style="fill: #fff;"/>
      <path d="M832.82,714.84l-14.08-24.22,9.32-2.79,7.46,16.76-2.71-18.19,9.29-2.79,1.47,28-10.75,3.22Z" style="fill: #fff;"/>
      <path d="M865.75,704.02c-2.09.85-3.82,1.18-5.18.98-1.36-.21-2.47-.79-3.34-1.76-.86-.97-1.59-2.17-2.17-3.61-.63-1.54-.91-2.88-.86-4.05.05-1.16.5-2.29,1.34-3.36.84-1.07,2.13-2.22,3.88-3.45l5.05-3.55-1.06-2.59c-.55-1.36-1.49-1.77-2.81-1.23-1.21.49-1.58,1.29-1.13,2.39l.62,1.51-8.73,3.56c-.05-.08-.11-.2-.17-.33-.06-.14-.12-.3-.2-.48-1.02-2.51-.87-4.65.47-6.42,1.34-1.77,3.92-3.43,7.75-5,2.01-.82,3.9-1.31,5.68-1.49,1.78-.17,3.33.02,4.64.57,1.31.55,2.24,1.51,2.8,2.88l7.84,19.22-8.93,3.64-1.22-2.99c0,1.23-.4,2.33-1.17,3.3-.78.97-1.81,1.72-3.09,2.24ZM867.38,697.9c.74-.3,1.15-.71,1.25-1.24.1-.52.05-1.03-.15-1.51l-2.87-7.03c-1.1.84-1.89,1.66-2.37,2.45-.48.79-.51,1.68-.11,2.67l1.32,3.25c.61,1.49,1.58,1.96,2.92,1.42Z" style="fill: #fff;"/>
      <path d="M897.45,689.6c-2.33,1.19-4.08,1.66-5.23,1.41-1.15-.25-2.08-1.06-2.78-2.43l-7.72-15.13-2.44,1.24-2.25-4.42,2.44-1.24-2.62-5.14,8.4-4.29,2.62,5.14,2.44-1.24,2.25,4.42-2.44,1.24,7.02,13.77c.2.4.44.63.72.7.28.06.69-.04,1.23-.32.39-.2.72-.39,1-.59l2.01,3.95c-.17.14-.73.53-1.68,1.17-.95.64-1.95,1.23-3,1.76Z" style="fill: #fff;"/>
      <path d="M895.62,657.39l-2.76-4.66,8.35-4.94,2.76,4.66-8.35,4.94ZM910.35,682.28l-13.88-23.45,8.35-4.94,13.88,23.44-8.35,4.94Z" style="fill: #fff;"/>
      <path d="M937.54,665.25c-6.61,4.67-11.54,4.7-14.79.1l-6.3-8.94c-1.48-2.1-1.78-4.39-.91-6.88.87-2.49,2.86-4.83,5.96-7.02,3.11-2.2,5.99-3.29,8.63-3.28,2.64.01,4.7,1.07,6.18,3.17l6.3,8.93c3.25,4.6,1.56,9.24-5.07,13.92ZM934.65,661.16c.67-.47,1.03-.97,1.09-1.49.06-.53-.08-1.04-.43-1.53l-7.68-10.88c-.91-1.3-1.99-1.51-3.23-.63-1.24.88-1.4,1.96-.49,3.26l7.68,10.88c.35.49.78.8,1.3.92.51.12,1.1-.06,1.77-.53Z" style="fill: #fff;"/>
      <path d="M955.76,651.36l-17.89-20.55,7.32-6.37,2.28,2.62c-.41-1.02-.49-2.13-.22-3.33s1.05-2.37,2.38-3.52c2.13-1.85,4.05-2.76,5.78-2.71,1.72.04,3.25.82,4.58,2.35l13.8,15.85-7.21,6.28-13.36-15.35c-.35-.4-.8-.67-1.34-.8-.54-.13-1.12.07-1.71.59-.56.49-.86.97-.9,1.47-.04.49.08.96.34,1.41.27.45.57.86.91,1.25l12.58,14.46-7.32,6.37Z" style="fill: #fff;"/>
      <path d="M1008.35,598.31l-1.23-.9c-1.28-.94-2.21-2.08-2.8-3.41-.59-1.34-.98-2.79-1.17-4.37-.19-1.57-.33-3.19-.41-4.84-.08-1.61-.22-3.18-.42-4.73s-.59-2.97-1.18-4.29c-.59-1.32-1.51-2.44-2.77-3.36-.61-.45-1.22-.69-1.86-.74-.63-.05-1.26.35-1.88,1.19-.94,1.28-.64,2.49.89,3.61l3.15,2.31-5.93,8.08c-.24-.15-.5-.32-.8-.5s-.58-.38-.84-.57c-1.86-1.36-3.22-2.81-4.08-4.34s-1.1-3.29-.69-5.26c.41-1.98,1.59-4.3,3.56-6.98,2.34-3.19,4.76-5.23,7.26-6.12s4.86-.52,7.09,1.12c1.51,1.11,2.62,2.38,3.33,3.79.71,1.42,1.18,2.95,1.41,4.59.23,1.65.38,3.38.47,5.21.06,1.3.14,2.58.27,3.84.12,1.27.36,2.48.71,3.63l7.69-10.49,4.86,3.57-14.63,19.95Z" style="fill: #fff;"/>
      <path d="M1035.31,559.3c-2.06,3.46-4.29,5.75-6.72,6.87s-4.86.95-7.3-.51l-12.4-7.36c-2.58-1.53-4.03-3.61-4.35-6.22-.31-2.61.61-5.74,2.78-9.4,2.18-3.66,4.48-5.98,6.92-6.95,2.44-.97,4.95-.68,7.53.85l12.4,7.36c2.45,1.45,3.76,3.51,3.95,6.16.18,2.65-.75,5.72-2.82,9.2ZM1030.25,556.3c.38-.64.48-1.25.31-1.83s-.5-1.02-.98-1.31l-13.57-8.06c-.64-.38-1.27-.61-1.88-.69-.61-.08-1.19.35-1.74,1.28-.55.93-.65,1.65-.29,2.14.36.5.86.94,1.51,1.32l13.57,8.06c.48.29,1.02.36,1.62.22.6-.14,1.09-.52,1.46-1.14Z" style="fill: #fff;"/>
      <path d="M1048.38,534.48l-22.22-10.63c.19.81.18,1.8-.02,2.96-.2,1.17-.52,2.21-.96,3.12l-4.61-2.2c.33-.91.58-1.92.77-3.06.19-1.13.23-2.25.13-3.35-.1-1.1-.4-2.05-.9-2.85l3.31-6.92,28.85,13.81-4.36,9.12Z" style="fill: #fff;"/>
      <path d="M1061.7,504.18c-1.16,3.1-2.42,5.38-3.79,6.87-1.37,1.49-2.9,2.32-4.6,2.5-1.7.18-3.61-.12-5.74-.93l-8.1-3.04c-2.07-.78-3.86-1.6-5.35-2.46-1.49-.86-2.62-1.9-3.38-3.13-.77-1.23-1.12-2.77-1.06-4.62s.6-4.14,1.63-6.88c.7-1.88,1.58-3.54,2.62-5.01,1.05-1.46,2.19-2.53,3.43-3.2,1.24-.67,2.51-.76,3.82-.27l3.23,1.21-3.23,8.6-.61-.23c-.5-.19-1.01-.34-1.54-.45-.53-.11-1.01-.08-1.45.11-.44.18-.8.64-1.08,1.36-.37,1-.45,1.76-.23,2.29s.68.92,1.37,1.18l6,2.25c-.37-.62-.56-1.42-.57-2.38,0-.97.22-2.06.68-3.28.93-2.47,1.97-4.24,3.13-5.32,1.16-1.08,2.5-1.63,4-1.64s3.24.35,5.22,1.09c2,.75,3.6,1.77,4.82,3.05,1.22,1.29,1.92,2.94,2.11,4.95.19,2.01-.26,4.47-1.35,7.38ZM1056.06,502.45c.39-1.05.33-1.79-.19-2.21-.52-.43-1.25-.81-2.17-1.16l-2.42-.91c-1.63-.61-2.71-.23-3.22,1.13-.59,1.57-.18,2.63,1.24,3.16l3.71,1.39c1.47.55,2.49.09,3.05-1.4Z" style="fill: #fff;"/>
    </g>
    <polygon points="470.85 220.32 455.43 212.4 440.16 220.61 442.93 203.5 430.4 191.52 447.53 188.86 455.06 173.25 462.88 188.72 480.05 191.05 467.76 203.26 470.85 220.32" style="fill: #fff;"/>
    <polygon points="1089.02 381.46 1073.6 373.54 1058.34 381.75 1061.1 364.64 1048.58 352.66 1065.71 350 1073.23 334.39 1081.05 349.86 1098.23 352.19 1085.93 364.41 1089.02 381.46" style="fill: #fff;"/>
  </g>
  <path d="M868.15,531.29c-31.46,25.89-71.39,41.86-115.01,43.13-109.23,3.17-199.22-87.29-195.49-196.51,3.48-101.86,87.16-183.37,189.87-183.37,43.4,0,83.39,14.55,115.38,39.04.69.53-73.73-44.69-164.68-3.84-70.51,31.67-102.17,105.16-90.82,181.05,4.14,27.67,18.24,93.91,97.99,129.66,86.64,38.84,164.36-10.47,162.76-9.15Z" style="fill: #ae0402;"/>
  <path d="M922.82,464.44c-25.63,51.5-78.8,86.88-140.23,86.88-28.13,0-72.13-17.57-72.13-17.57-9.43-5.13,49.95,16.93,103.91-7.54,53.97-24.48,63.31-57.84,68.01-60.31" style="fill: url(#_未命名的渐变);"/>
  <path d="M917.27,301.79c-25.63-51.5-78.8-86.88-140.23-86.88-28.13,0-72.13,17.57-72.13,17.57-9.43,5.13,49.95-16.93,103.91,7.54,53.97,24.48,63.31,57.84,68.01,60.31" style="fill: url(#_未命名的渐变1);"/>
  <path d="M722.43,379.13l-13.95,65.11-55.84-.26,37.52-177.38,63.53.3c14.93.07,30.68.53,37.46,1.73,6.77,1.2,13.2,3.39,20.02,8.37,3.68,2.69,7.9,5.93,11.95,13.44,4.04,7.52,5.48,14.49,5.08,26.59-.57,17.25-8.11,34.07-20.02,43.62-23.45,18.81-45.7,18.22-55.11,18.07l-30.64.41ZM728.71,343.91s-4.26,0,21.28,0c2.94,0,25.24,0,27.41-27.49,0,0,1.49-13.74-19.27-14.64h-20.76l-8.66,42.12Z" style="fill: url(#_未命名的渐变_9);"/>
  <path d="M785.29,349.38l-26.15,119.09h79.89s-8.42,38.6-8.42,38.6l-126.7.82,34.74-158.21,46.64-.3Z" style="fill: #ae0007;"/>
</svg>